<?xml version="1.0" encoding="utf-8"?>
<!-- Generator: Adobe Illustrator 19.0.0, SVG Export Plug-In . SVG Version: 6.00 Build 0)  -->
<svg version="1.1" id="Layer_1" xmlns="http://www.w3.org/2000/svg" xmlns:xlink="http://www.w3.org/1999/xlink" x="0px" y="0px"
	 viewBox="0 0 207.3 55.5" style="enable-background:new 0 0 207.3 55.5;" xml:space="preserve">
<style type="text/css">
	.st0{fill:#EB5D40;}
</style>
<g>
	<rect x="78.8" y="8.8" width="2.9" height="5.8"/>
	<rect x="78.8" y="17.5" width="2.9" height="29.2"/>
	<polygon points="100.7,43.5 89.1,17.5 86.1,17.5 99.3,46.7 102.2,46.7 115.3,17.5 112.4,17.5 	"/>
	<path class="st0" d="M186.8,0h-2.9L181,6.7l-17.5,40h43.8L186.8,0z M171.9,40.9l10.6-24.2l10.6,24.2H171.9z"/>
	<g>
		<path d="M144.5,26.3c0-4.8,3.9-8.8,8.8-8.8h8.8v2.9h-8.8c-3.2,0-5.8,2.6-5.8,5.8v20.4h-2.9L144.5,26.3z"/>
		<path d="M24.8,26.3c0-4.8-3.9-8.8-8.8-8.8H8.8c-4.8,0-8.8,3.9-8.8,8.8L0,38c0,4.8,3.9,8.8,8.8,8.8h7.3c4.8,0,8.8-3.9,8.8-8.8V26.3
			z M21.9,38c0,3.2-2.6,5.8-5.8,5.8H8.8c-3.2,0-5.8-2.6-5.8-5.8l0-11.7c0-3.2,2.6-5.8,5.8-5.8h7.3c3.2,0,5.8,2.6,5.8,5.8L21.9,38z"
			/>
		<path d="M52.6,26.3c0-4.8-3.9-8.8-8.8-8.8l-14.6,0v37.9h2.9v-8.8h11.7c4.8,0,8.8-3.9,8.8-8.8L52.6,26.3z M49.7,37.9
			c0,3.2-2.6,5.8-5.8,5.8l-11.7,0V20.4h11.7c3.2,0,5.8,2.6,5.8,5.8V37.9z"/>
		<path d="M61.3,37.9c0,3.2,2.6,5.8,5.8,5.8h7.3v2.9h-7.3c-4.8,0-8.8-3.9-8.8-8.8l0-17.5h-2.9v-2.9h2.9v-5.8h2.9v5.8h10.8l-1.3,2.9
			h-9.5V37.9z"/>
		<path d="M137.2,37.9c0,3.2-2.6,5.8-5.8,5.8h-5.8c-3.2,0-5.8-2.6-5.8-5.8v-5.8h20.4v-5.8c0-4.8-3.9-8.8-8.8-8.8h-5.8
			c-4.8,0-8.8,3.9-8.8,8.8l0,11.7c0,4.8,3.9,8.8,8.8,8.8h5.8c4.8,0,8.8-3.9,8.8-8.8H137.2z M119.7,26.3c0-3.2,2.6-5.8,5.8-5.8l6.1,0
			l-0.2,0c3.2,0,5.8,2.6,5.8,5.8v2.9h-17.5V26.3z"/>
	</g>
</g>
</svg>
